<?xml version="1.0" encoding="utf-8"?>
<!-- Generator: Adobe Illustrator 25.0.1, SVG Export Plug-In . SVG Version: 6.00 Build 0)  -->
<svg version="1.1" id="图层_1" xmlns="http://www.w3.org/2000/svg" xmlns:xlink="http://www.w3.org/1999/xlink" x="0px" y="0px"
	 viewBox="0 0 458.98 124.46" style="enable-background:new 0 0 458.98 124.46;" xml:space="preserve">
<style type="text/css">
	.st0{fill:#86E8FF;}
	.st1{fill:#5555FF;}
	.st2{opacity:0.7;fill:#51DDFE;}
</style>
<g>
	<path class="st0" d="M40.52,44.51v73.5c0,5.74-6.94,8.61-11,4.55L2.83,95.86C0.95,93.98,0,91.51,0,89.03c0-2.46,0.93-4.91,2.8-6.8
		c0.02-0.02,0.02-0.02,0.03-0.03L40.52,44.51z"/>
	<circle class="st1" cx="9.11" cy="44.51" r="9.11"/>
	<path class="st1" d="M85.04,44.51c0,0.43-0.01,0.86-0.02,1.29c-0.01,0.33-0.02,0.67-0.04,1c-0.02,0.38-0.04,0.76-0.07,1.13
		c-0.02,0.33-0.05,0.65-0.09,0.98c-0.06,0.7-0.15,1.39-0.25,2.08c-0.17,1.21-0.4,2.4-0.67,3.57c-0.09,0.41-0.19,0.81-0.3,1.21
		c-0.21,0.79-0.44,1.59-0.69,2.37c-0.25,0.78-0.52,1.55-0.81,2.31c-0.14,0.39-0.29,0.76-0.45,1.14c-0.31,0.75-0.65,1.5-0.99,2.23
		c-0.31,0.64-0.65,1.28-0.99,1.91c-0.51,0.95-1.06,1.87-1.64,2.78c-0.17,0.26-0.33,0.51-0.5,0.77c-0.63,0.93-1.29,1.84-1.98,2.72
		c-0.43,0.54-0.87,1.08-1.33,1.6c-0.41,0.48-0.84,0.96-1.29,1.43c-0.3,0.33-0.62,0.65-0.93,0.96c-1.52,1.51-3.13,2.91-4.85,4.19
		c-1.14,0.85-2.32,1.66-3.54,2.4c-2.45,1.49-5.06,2.75-7.78,3.75c-1.92,0.69-3.9,1.27-5.93,1.71c-3.03,0.66-6.17,0.99-9.39,0.99H0
		c0-2.46,0.93-4.91,2.8-6.79c0.01-0.02,0.01-0.02,0.03-0.03l37.68-37.67l0.02-0.02L72,13.04c2.52,2.52,4.74,5.33,6.6,8.39
		c0.37,0.61,0.72,1.24,1.07,1.87c0.17,0.31,0.34,0.63,0.5,0.95c0.33,0.64,0.64,1.29,0.94,1.95c0.74,1.64,1.39,3.33,1.93,5.08
		c0.21,0.69,0.41,1.4,0.6,2.11c0.09,0.35,0.18,0.71,0.26,1.07c0.25,1.08,0.46,2.17,0.63,3.27C84.87,39.94,85.04,42.21,85.04,44.51z"
		/>
	<path class="st0" d="M72,13.04L40.53,44.52L7,10.99C2.94,6.93,5.82,0,11.56,0h28.95C52.82,0,63.96,4.99,72,13.04z"/>
	<path class="st2" d="M83.04,31.28c-0.54-1.75-1.19-3.44-1.93-5.08C81.86,27.84,82.5,29.53,83.04,31.28z"/>
	<path class="st2" d="M83.9,54.56c0.27-1.17,0.5-2.37,0.67-3.57C84.4,52.2,84.17,53.39,83.9,54.56z"/>
	<g>
		<path class="st1" d="M154.88,34.91h-20.2c-5.06,0-9.16,4.1-9.16,9.16v40.67c0,1.91,0.78,3.64,2.02,4.89
			c1.36,1.36,3.28,2.15,5.39,2.01c3.66-0.25,6.42-3.46,6.42-7.13l0-13.2h15.31c13.92,0,22.19-6.95,22.19-18.55
			C176.86,41.57,168.08,34.91,154.88,34.91z M153.6,60.6h-14.24V45.53h14.24c6.7,0,9.52,2.84,9.52,7.44
			C163.12,58.6,159.43,60.6,153.6,60.6z"/>
		<path class="st1" d="M190.77,50.07c-3.32,0.42-5.73,3.4-5.73,6.75v28.26c0,1.81,0.74,3.46,1.93,4.65c1.3,1.3,3.15,2.05,5.16,1.9
			c3.47-0.26,6.08-3.33,6.08-6.81V56.6C198.21,52.68,194.79,49.56,190.77,50.07z"/>
		<path class="st1" d="M242.37,77.6h-0.4l-4.27,2.09c-0.07,0.08-0.14,0.16-0.19,0.26c-1.62,1.96-3.88,2.92-7.43,2.92
			c-6.93,0-9.77-5.45-9.77-12.19c0-6.89,3.01-11.93,9.83-11.93c3.9,0,6.09,1.52,7.33,3.2c0.03,0.05,0.06,0.09,0.09,0.13
			c1.04,1.29,2.61,2.13,4.38,2.19h0.4c3.15-0.1,5.67-2.68,5.67-5.85c0-1.8-0.82-3.42-2.1-4.48c-0.02-0.04-0.05-0.05-0.07-0.06
			c-3.36-2.82-8.41-4.98-15.8-4.98c-15.09,0-23.12,10.6-23.12,21.88c0,11.93,7.07,22.02,23.1,22.02c6.95,0,12.12-1.9,15.73-4.8
			c0.07-0.05,0.14-0.11,0.2-0.17c1.25-1.06,2.03-2.65,2.03-4.41C247.99,80.26,245.5,77.7,242.37,77.6z"/>
		<path class="st1" d="M329.35,34.91c-2.97,0-5.57,2-6.32,4.88c-2.77,10.69-7.54,31.15-8.96,37.27c-0.1,0.45-0.73,0.45-0.84,0.01
			c-1.45-5.92-6.24-25.26-9.24-36c-1.02-3.65-4.34-6.16-8.13-6.16h-0.16c-3.91,0-7.32,2.56-8.38,6.28
			c-3.08,10.73-7.89,30.21-9.37,36.24c-0.11,0.45-0.75,0.44-0.85-0.01c-1.35-6.23-5.84-26.74-8.65-37.57
			c-0.76-2.92-3.38-4.94-6.4-4.94c-0.07,0-0.14,0-0.21,0c-4.57,0-7.87,4.37-6.62,8.76l11.62,40.85c1.2,4.22,5.05,7.13,9.44,7.13h0
			c4.38,0,8.23-2.9,9.43-7.11c3.62-12.65,7.58-27.08,9.01-35.17h0.08c1.53,6.73,5.74,22.64,9.21,35.02c1.21,4.3,5.12,7.26,9.59,7.26
			h0c4.39,0,8.26-2.87,9.53-7.08l12.47-41.25C336.87,39.14,333.74,34.91,329.35,34.91L329.35,34.91z"/>
		<path class="st1" d="M344.19,56.6v28.47c0,3.64,2.95,6.58,6.58,6.58l0,0c3.64,0,6.58-2.95,6.58-6.58V56.6
			c0-3.64-2.95-6.58-6.58-6.58l0,0C347.13,50.02,344.19,52.96,344.19,56.6z"/>
		<path class="st1" d="M388.84,64.91c-7.75-1.14-9.08-2.2-9.08-3.93c0-1.47,0.88-3.37,5.86-3.37c3.32,0,5.24,0.7,6.39,1.67
			c1.82,1.53,4.02,2.52,6.39,2.52h0.99c4.16,0,6.19-5.13,3.12-7.94c-3.14-2.87-8.34-4.97-16.41-4.97c-14.45,0-19.24,7.1-19.24,13.41
			c0,5.07,2.2,10.93,18.07,13.18c8.33,1.14,10.15,2.28,10.15,4.61c0,1.97-1.55,3.71-7.18,3.71c-3.51,0-5.91-0.76-7.48-2.06
			c-2.11-1.75-4.67-2.87-7.41-2.87l-0.56,0c-4.03,0-6.09,4.83-3.31,7.75c3.88,4.07,10.34,6.18,17.88,6.18
			c15.2,0,20.96-6.27,20.96-13.87C407.98,73.14,405.76,67.46,388.84,64.91z"/>
		<path class="st1" d="M442.65,48.89c-8.63,0-12.22,4.02-13.81,6.34V38.21c0-3.62-2.93-6.55-6.55-6.55h0
			c-3.62,0-6.55,2.93-6.55,6.55v46.89c0,3.62,2.93,6.55,6.55,6.55h0.07c3.62,0,6.55-2.93,6.55-6.55V71.66
			c0-7.94,3.11-12.54,9.35-12.54c5.99,0,7.42,3.7,7.42,9.02V85c0,3.67,2.98,6.65,6.65,6.65l0,0c3.67,0,6.65-2.98,6.65-6.65V66.67
			C458.98,54.74,452.92,48.89,442.65,48.89z"/>
		<circle class="st1" cx="350.77" cy="38.25" r="6.58"/>
		<circle class="st1" cx="191.63" cy="38.25" r="6.58"/>
	</g>
	<path class="st2" d="M85.04,44.51c0,0.43-0.01,0.86-0.02,1.29c-0.01,0.33-0.02,0.67-0.04,1c-0.02,0.38-0.04,0.76-0.07,1.13
		c-0.02,0.33-0.05,0.65-0.09,0.98c-0.06,0.7-0.15,1.39-0.25,2.08c-0.17,1.21-0.4,2.4-0.67,3.57c-0.09,0.41-0.19,0.81-0.3,1.21
		c-0.21,0.79-0.44,1.59-0.69,2.37c-0.25,0.78-0.52,1.55-0.81,2.31c-0.14,0.39-0.29,0.76-0.45,1.14c-0.31,0.75-0.65,1.5-0.99,2.23
		c-0.32,0.65-0.65,1.29-0.99,1.91c-0.51,0.95-1.06,1.87-1.64,2.78c-0.17,0.26-0.33,0.51-0.5,0.77c-0.63,0.93-1.29,1.84-1.98,2.72
		c-0.43,0.54-0.87,1.08-1.33,1.6c-0.41,0.48-0.84,0.96-1.29,1.43c-0.3,0.33-0.62,0.65-0.93,0.96L40.53,44.52L72,13.04
		c2.52,2.52,4.74,5.33,6.6,8.39c0.37,0.61,0.73,1.24,1.07,1.87c0.17,0.31,0.34,0.63,0.5,0.95c0.33,0.64,0.65,1.29,0.94,1.95
		c0.75,1.64,1.39,3.33,1.93,5.08c0.22,0.69,0.42,1.4,0.6,2.11c0.09,0.35,0.18,0.71,0.26,1.07c0.25,1.08,0.46,2.17,0.63,3.27
		C84.87,39.94,85.04,42.21,85.04,44.51z"/>
</g>
</svg>
